<svg width="38" height="38" viewBox="0 0 38 38" fill="none" xmlns="http://www.w3.org/2000/svg">
<path d="M31.25 28.125C31.6482 28.1254 32.0313 28.2779 32.3209 28.5513C32.6105 28.8247 32.7847 29.1984 32.8081 29.5959C32.8314 29.9935 32.7021 30.385 32.4465 30.6904C32.1909 30.9958 31.8283 31.192 31.4328 31.2391L31.25 31.25H6.25C5.85175 31.2496 5.4687 31.0971 5.17911 30.8237C4.88952 30.5503 4.71526 30.1766 4.69192 29.7791C4.66858 29.3815 4.79793 28.99 5.05354 28.6846C5.30915 28.3792 5.67173 28.183 6.06719 28.1359L6.25 28.125H31.25ZM31.25 17.1875C31.6644 17.1875 32.0618 17.3521 32.3549 17.6451C32.6479 17.9382 32.8125 18.3356 32.8125 18.75C32.8125 19.1644 32.6479 19.5618 32.3549 19.8549C32.0618 20.1479 31.6644 20.3125 31.25 20.3125H6.25C5.8356 20.3125 5.43817 20.1479 5.14515 19.8549C4.85212 19.5618 4.6875 19.1644 4.6875 18.75C4.6875 18.3356 4.85212 17.9382 5.14515 17.6451C5.43817 17.3521 5.8356 17.1875 6.25 17.1875H31.25ZM31.25 6.25C31.6644 6.25 32.0618 6.41462 32.3549 6.70765C32.6479 7.00067 32.8125 7.3981 32.8125 7.8125C32.8125 8.2269 32.6479 8.62433 32.3549 8.91735C32.0618 9.21038 31.6644 9.375 31.25 9.375H6.25C5.8356 9.375 5.43817 9.21038 5.14515 8.91735C4.85212 8.62433 4.6875 8.2269 4.6875 7.8125C4.6875 7.3981 4.85212 7.00067 5.14515 6.70765C5.43817 6.41462 5.8356 6.25 6.25 6.25H31.25Z" fill="white"/>
</svg>
