<?xml version="1.0" encoding="UTF-8"?>
<svg id="Layer_1" xmlns="http://www.w3.org/2000/svg" viewBox="0 0 252.51 31.93">
  <defs>
    <style>
      .cls-1 {
        fill: #c8da2c;
      }
    </style>
  </defs>
  <path class="cls-1" d="M228.45.85l-3.64,13.75c-5.73-.03-11.88-.06-17.74-.1l11.44-13.11.44-.5h.61l8.89-.04Z"/>
  <path class="cls-1" d="M224.41,16.13l-3.79,14.3h-9.97l3.13-11.68-10.19,11.68-1.33,1.5-.52-1.5-3.89-11.65-3.16,11.66h-9.88l3.54-12.95c9.37-.4,23.68-.93,36.06-1.36Z"/>
  <path class="cls-1" d="M170.81,23.78l-1.1,2.88c-.08.3-.49.3-.51,0l.49-2.88c.64-3.76-.99-6.63-3.98-7.11l-3.24-.29c-.3,0-.16-.5.16-.6l3.44-.4c3.24-.4,6.48-3.37,7.92-7.12l1.09-2.85-.02.09c.08-.29.48-.29.5,0l-.49,2.86c-.53,3.74,1.08,5.22,4.39,5.7,1.37.21,13.55.35,27.37.44l-4.39-13.04-.17-.5-9.43.05-3.61,13.23c.45-2.38.43-4.55-.14-6.52-.67-2.37-1.98-4.23-4.03-5.6C183.04.66,180.31-.02,176.98,0c-3.32.01-6.43.71-9.35,2.2-2.8,1.38-5.13,3.25-7.09,5.62-1.97,2.36-3.32,5.02-4.12,7.88-.8,2.86-.36,1.28-.45,1.97-.05-.19-.12-.29-.16-.49-.31-.69-.82-1.38-1.59-1.87.61-.39,1.13-.79,1.67-1.28,1.1-1.09,1.79-2.47,2.23-4.04.75-2.66.25-4.81-1.52-6.38-1.66-1.55-4.27-2.23-7.67-2.21l-13.07.06-8.29,28.99h14.25c3.32,0,6.33-.7,8.94-2.09,2.5-1.39,4.22-3.57,5.07-6.24.06.49.1,1.09.26,1.58.65,2.38,1.94,4.26,3.95,5.75,2.14,1.39,4.88,2.09,8.22,2.09s6.48-.7,9.3-2.1c2.82-1.39,5.29-3.38,7.17-5.77,1.57-1.88,2.73-3.94,3.57-6.17-5.4.22-9.15.41-9.93.52-3.58.5-5.24,1-7.56,5.76ZM146.25,20.45c-.14.5-.45.89-.87,1.29h-.1c-.38.3-.84.49-1.74.49h-4.01s.98-3.44.98-3.44h4.01c.9-.01,1.34.18,1.56.48.22.3.31.69.17,1.18ZM147.87,10.45c-.17.55-.42.75-.67.95-.35.19-.71.39-1.31.39h-3.4s.81-2.84.81-2.84h3.4c.5-.01.84.19,1.09.38.23.19.23.56.08,1.12Z"/>
  <path class="cls-1" d="M250,16.98l.03-.1c-.27-.57-.68-1.13-1.25-1.59-1.57.05-11.61.39-23.65.81l-3.77,14.23h14.64c3.41,0,6.49-.71,9.13-2.12,2.67-1.51,4.4-3.82,5.18-6.83.78-3,.31-3.2-.31-4.4ZM240.37,20.3c-.13.5-.44.9-.85,1.3h-.11c-.39.3-.85.5-1.78.5h-4.02s.92-3.49.92-3.49h4.02c.92-.01,1.39.19,1.62.49.23.3.33.7.2,1.2Z"/>
  <path class="cls-1" d="M250.5,3.13c-1.74-1.58-4.44-2.26-7.94-2.25l-13.42.06-3.62,13.66c11.6.05,21.34.08,23.28.08.43-.31.83-.63,1.23-1,1.11-1.1,1.78-2.5,2.2-4.09.69-2.69.13-4.88-1.73-6.46ZM241.78,10.15c-.16.57-.41.77-.66.97-.36.2-.72.4-1.34.4h-3.49s.75-2.88.75-2.88h3.5c.51-.01.87.19,1.13.38.24.2.25.57.11,1.13Z"/>
  <path class="cls-1" d="M119.74,9.52l2.37-8.2h-.9s-.1.01-.1.01l-21.54.09-7.85,26.68-4.05-8.72c1.63-.49,3.02-1.18,4.29-2.16,1.79-1.37,3.05-3.33,3.74-5.67.69-2.34.8-4.39.18-5.94-.63-1.55-1.79-2.61-3.39-3.19-1.57-.67-3.45-.95-5.61-.94l-12.83.05-3.9,13.01c.5-2.33.56-4.47.06-6.41-.57-2.32-1.78-4.15-3.71-5.5-1.9-1.44-4.53-2.1-7.74-2.09-3.21.02-6.23.71-9.1,2.16-2.75,1.36-5.06,3.2-7.03,5.53-1.66,1.93-2.9,4.06-3.71,6.39l3.98-12.95-9,.04-.44.49-11.64,12.95-3.6-12.89-.13-.48-9.13.04L0,30.28h9.37l3.55-11.35,3.13,11.35.42,1.46,1.32-1.46,10.21-11.37-3.51,11.37h9.43l4.01-13.04c-.53,2.33-.6,4.46-.22,6.41.55,2.33,1.73,4.18,3.63,5.65,2.02,1.36,4.65,2.05,7.88,2.05s6.28-.69,9.04-2.06c2.77-1.37,5.22-3.33,7.11-5.68,1.66-1.95,2.89-4.1,3.79-6.44l-3.93,13.1h9.55l2.51-8.43,4.02,8.03.18.39h32.25l2.45-8.48-13.11.02.6-2.06,11.42-.02,2.35-8.14-11.4.04.6-2.06,13.09-.04ZM63.66,16.6l-2.73.3c-3.45.39-6.97,3.32-8.48,7.02l-1.16,2.83c-.08.3-.57.3-.48,0l.56-2.83c.73-3.7-1.04-6.51-4.21-6.99l-2.54-.29c-.29,0-.14-.48.18-.58l2.72-.3c3.43-.4,6.95-3.31,8.45-7l1.15-2.81c.09-.29.57-.29.49,0l-.56,2.81c-.73,3.68,1.05,6.49,4.23,6.97l2.55.28c.3,0,.15.49-.17.59ZM85.82,11.68c-.32,1.07-.73,1.46-1.08,1.65-.68.3-1.43.49-2.31.5h-2.66l1.25-4.18h2.65c.89,0,1.52.18,2.02.47.27.1.45.48.13,1.56Z"/>
</svg>