<svg width="50" height="50" viewBox="0 0 50 50" fill="none" xmlns="http://www.w3.org/2000/svg">
<path d="M10.4167 39.5833C9.82644 39.5833 9.33199 39.3833 8.93338 38.9833C8.53477 38.5833 8.33477 38.0889 8.33338 37.5C8.33199 36.9111 8.53199 36.4167 8.93338 36.0167C9.33477 35.6167 9.82921 35.4167 10.4167 35.4167H12.5V20.8333C12.5 17.9514 13.3681 15.391 15.1042 13.1521C16.8403 10.9132 19.0973 9.44583 21.875 8.74999V7.29166C21.875 6.42361 22.1792 5.68611 22.7875 5.07916C23.3959 4.47222 24.1334 4.16805 25 4.16666C25.8667 4.16527 26.6049 4.46944 27.2146 5.07916C27.8244 5.68888 28.1278 6.42638 28.125 7.29166V8.74999C30.9028 9.44444 33.1598 10.9118 34.8959 13.1521C36.632 15.3924 37.5 17.9528 37.5 20.8333V35.4167H39.5834C40.1737 35.4167 40.6688 35.6167 41.0688 36.0167C41.4688 36.4167 41.6681 36.9111 41.6667 37.5C41.6653 38.0889 41.4653 38.584 41.0667 38.9854C40.6681 39.3868 40.1737 39.5861 39.5834 39.5833H10.4167ZM25 45.8333C23.8542 45.8333 22.8737 45.4257 22.0584 44.6104C21.2431 43.7951 20.8348 42.8139 20.8334 41.6667H29.1667C29.1667 42.8125 28.7591 43.7937 27.9438 44.6104C27.1285 45.4271 26.1473 45.8347 25 45.8333ZM16.6667 35.4167H33.3334V20.8333C33.3334 18.5417 32.5174 16.5799 30.8855 14.9479C29.2535 13.316 27.2917 12.5 25 12.5C22.7084 12.5 20.7466 13.316 19.1146 14.9479C17.4827 16.5799 16.6667 18.5417 16.6667 20.8333V35.4167Z" fill="white"/>
</svg>

