<svg width="98" height="127" viewBox="0 0 98 127" fill="none" xmlns="http://www.w3.org/2000/svg">
<path d="M97.9111 127H5.46667V110.644L54.3556 64.0667C59.8074 58.7333 63.4815 54.2296 65.3778 50.5556C67.2741 46.763 68.2222 42.9704 68.2222 39.1778C68.2222 33.6074 66.3259 29.3407 62.5333 26.3778C58.8593 23.2963 53.4074 21.7556 46.1778 21.7556C34.0889 21.7556 24.8444 26.0222 18.4444 34.5556L0.311111 22.6444C5.17037 15.7704 11.7481 10.3778 20.0444 6.46667C28.3407 2.55555 37.8222 0.599997 48.4889 0.599997C57.4963 0.599997 65.3778 2.08148 72.1333 5.04444C78.8889 7.88888 84.1037 12.037 87.7778 17.4889C91.5704 22.9407 93.4667 29.3407 93.4667 36.6889C93.4667 43.3259 91.9852 49.6074 89.0222 55.5333C86.1778 61.4593 80.7259 68.2148 72.6667 75.8L40.8444 106.556H97.9111V127Z" fill="url(#paint0_linear_48_1092)"/>
<defs>
<linearGradient id="paint0_linear_48_1092" x1="-2" y1="64.5" x2="99" y2="64.5" gradientUnits="userSpaceOnUse">
<stop stop-color="#D4F312"/>
<stop offset="0.485577" stop-color="#E9F987" stop-opacity="0.5"/>
<stop offset="1" stop-color="#FBFFE5"/>
</linearGradient>
</defs>
</svg>
